<svg width="40" height="24" viewBox="0 0 40 24" fill="none" xmlns="http://www.w3.org/2000/svg">
<path d="M33.1917 13.7135C32.545 12.8968 32.73 12.5335 33.1917 11.8035C33.2 11.7952 38.5383 4.4185 39.0883 1.91683L39.0917 1.91516C39.365 1.0035 39.0917 0.333496 37.77 0.333496H33.3967C32.2833 0.333496 31.77 0.908496 31.495 1.55183C31.495 1.55183 29.2683 6.88183 26.1183 10.3368C25.1017 11.3352 24.6317 11.6552 24.0767 11.6552C23.8033 11.6552 23.3783 11.3352 23.3783 10.4235V1.91516C23.3783 0.821829 23.0667 0.333496 22.145 0.333496H15.2683C14.57 0.333496 14.155 0.843496 14.155 1.3185C14.155 2.35516 15.73 2.5935 15.8933 5.51016V11.8385C15.8933 13.2252 15.6417 13.4802 15.0833 13.4802C13.5967 13.4802 9.98833 8.1285 7.85 2.0035C7.41833 0.815163 6.99667 0.335163 5.875 0.335163H1.5C0.251667 0.335163 0 0.910163 0 1.5535C0 2.69016 1.48667 8.34183 6.91333 15.8085C10.53 20.9052 15.6233 23.6668 20.2567 23.6668C23.0417 23.6668 23.3817 23.0535 23.3817 21.9985C23.3817 17.1285 23.13 16.6685 24.525 16.6685C25.1717 16.6685 26.285 16.9885 28.885 19.4468C31.8567 22.3618 32.345 23.6668 34.0083 23.6668H38.3817C39.6283 23.6668 40.26 23.0535 39.8967 21.8435C39.065 19.2985 33.445 14.0635 33.1917 13.7135Z" fill="white"/>
</svg>
